<svg width="24" height="24" viewBox="0 0 24 24" fill="none" xmlns="http://www.w3.org/2000/svg">
<path d="M21.1 9.4C21.1 9.1 21.2 8.7 21.2 7.9C21.2 4.6 18.4 3.2 16.3 3C15.6 2.5 14.9 2.2 14.3 2.1H14H10C9.9 2 9.8 2 9.7 2C9.1 2.1 8.4 2.5 7.7 3C5.6 3.2 2.8 4.6 2.8 7.9C2.8 8.7 2.8 9.1 2.9 9.4C2.5 9.9 2 10.9 2 12.9C2 13.4 2.3 13.9 2.7 14.2L5.1 15.5C5.3 15.6 5.6 15.7 5.9 15.7C6 15.7 6.3 15.2 6.3 15.2V16C6.3 16.3 6.2 16.5 6.2 16.7C6.1 17.1 6.1 17.4 6.1 18C6.1 19.6 7.8 21 8.8 21.6C9.1 21.9 9.4 22 9.7 22H14.3C14.6 22 14.9 21.9 15.2 21.7C16.2 21 17.8 19.6 17.8 18.1C17.8 17.5 17.8 17.2 17.7 16.8C17.7 16.6 17.6 16.4 17.6 16.1V15.3C17.6 15.3 17.9 15.8 18 15.8C18.3 15.8 18.5 15.7 18.8 15.6L21.2 14.3C21.7 14 21.9 13.5 21.9 13C22 10.9 21.5 9.9 21.1 9.4ZM18.6 14C17.5 13.9 17.2 12.4 17 12.1C16.8 14.2 16.2 15.2 16.2 15.2V16.3C16.2 16.6 16.3 16.8 16.3 17C16.3 17.4 16.4 17.6 16.4 18.1C16.4 18.7 15.6 19.7 14.4 20.5H9.8C8.6 19.7 7.8 18.7 7.8 18.1C7.8 17.6 7.8 17.4 7.9 17C7.9 16.8 8 16.6 8 16.3V15.2C8 15.2 7.1 14.1 7.1 12.1C6.5 13.1 5.5 14 5.5 14L3.6 13C3.6 11.3 4.1 10.5 4.2 10.3L4.5 9.9L4.4 9.2C4.4 8.9 4.3 8.4 4.3 7.9C4.3 4.9 7.5 4.5 7.8 4.5H8.2L8.5 4.3C9 3.9 9.5 3.7 9.9 3.6H13.9C14.3 3.7 14.8 3.9 15.3 4.3L15.6 4.5H16C16.4 4.5 19.5 4.9 19.5 7.9C19.5 8.5 19.5 8.9 19.4 9.2L19.3 9.7L19.6 10.1C19.8 10.4 20.2 11.1 20.2 12.9L18.6 14Z" fill="black"/>
<path d="M9.23957 12C8.65624 12.0833 8.59374 12.5781 8.51041 12.9115C8.51041 13.2448 8.7552 13.5729 9.0052 13.8229C9.17186 14.0729 11.0781 14.3281 11.6614 13.7448C11.8281 13.4948 11.7396 13.0885 11.7396 12.7552C11.6562 12.0885 10.8281 12 10.8281 12H9.23957ZM13.1719 12C13.1719 12 12.3437 12.0885 12.2604 12.7552C12.2604 13.0885 12.1719 13.4948 12.3385 13.7448C12.9219 14.3281 14.8281 14.0729 14.9948 13.8229C15.2448 13.5729 15.4896 13.2448 15.4896 12.9115C15.4062 12.5781 15.3437 12.0833 14.7604 12H13.1719ZM9.9427 14.3698C9.77864 14.3737 9.62499 14.401 9.49999 14.4219C8.99999 14.4219 8.90624 15.0052 8.82291 15.2552C8.73957 15.5885 9.07291 15.8437 9.23957 16.0104C9.48957 16.1771 11.1614 16.5937 11.6614 16.0104C11.8281 15.8437 11.7396 15.3229 11.7396 15.0729C11.7396 14.4896 11.0104 14.4219 11.0104 14.4219C11.0104 14.4219 10.4349 14.3581 9.9427 14.3698ZM14.0573 14.3698C13.5651 14.3581 12.9896 14.4219 12.9896 14.4219C12.9896 14.4219 12.2604 14.4896 12.2604 15.0729C12.2604 15.3229 12.1719 15.8437 12.3385 16.0104C12.8385 16.5937 14.5937 16.1771 14.7604 16.0104C14.9271 15.8437 15.2604 15.5885 15.1771 15.2552C15.0937 15.0052 15 14.4219 14.5 14.4219C14.375 14.401 14.2213 14.3737 14.0573 14.3698ZM9.65624 16.6615C9.23957 16.6615 9.16145 17 9.16145 17.4167C9.16145 18 9.67186 18.5938 9.83853 18.9271C10.0052 19.2604 11.2448 19.9063 11.6614 19.2396C11.8281 18.9896 11.7396 18.0938 11.7396 17.6771C11.7396 16.7604 11.0885 16.6615 11.0885 16.6615H9.65624ZM12.9114 16.6615C12.9114 16.6615 12.2604 16.7604 12.2604 17.6771C12.2604 18.0938 12.1719 18.9896 12.3385 19.2396C12.7552 19.9063 13.9948 19.2604 14.1614 18.9271C14.3281 18.5938 14.8385 18 14.8385 17.4167C14.8385 17 14.7604 16.6615 14.3437 16.6615H12.9114Z" fill="black"/>
</svg>
