<?xml version="1.0"?>
<svg xmlns="http://www.w3.org/2000/svg" width="50" height="50" viewBox="0 0 50 50">
    <path style="text-indent:0;text-align:start;line-height:normal;text-transform:none;block-progression:tb;-inkscape-font-specification:Bitstream Vera Sans" d="M 19.28125 0 C 17.007674 0 15.170234 1.5394463 13.96875 2.53125 C 12.410649 2.570773 9.7437201 2.9248924 7.1875 4.3125 C 4.4686199 5.7884052 2 8.5844919 2 13.0625 C 2 15.631346 2.3348273 16.837047 2.59375 17.5 C 2.665574 17.683901 2.662175 17.629427 2.6875 17.6875 C 1.8872589 18.869455 1.2111794 19.866312 0.78125 21.3125 C 0.34107723 22.793144 0.15625 24.656097 0.15625 27.71875 A 1.0001 1.0001 0 1 0 2.15625 27.71875 C 2.15625 24.739403 2.3366728 23.055106 2.6875 21.875 C 3.0383272 20.694894 3.5467161 19.942146 4.375 18.71875 C 4.473274 18.573434 4.5821972 18.42386 4.65625 18.21875 C 4.730303 18.01364 4.755173 17.749425 4.71875 17.53125 C 4.6459039 17.0949 4.5190386 16.990024 4.4375 16.78125 C 4.2744227 16.363703 4 15.477654 4 13.0625 C 4 9.2845081 5.8763801 7.3000948 8.15625 6.0625 C 10.43612 4.8249052 13.178216 4.5 14.34375 4.5 A 1.0001 1.0001 0 0 0 14.96875 4.28125 C 16.134861 3.3255349 17.991189 2 19.28125 2 A 1.0001 1.0001 0 1 0 19.28125 0 z M 30.53125 0 A 1.001098 1.001098 0 0 0 30.71875 2 C 32.008811 2 33.863573 3.3250657 35.03125 4.28125 A 1.0001 1.0001 0 0 0 35.65625 4.5 C 36.821223 4.5 39.563738 4.8248898 41.84375 6.0625 C 44.123762 7.3001102 46 9.2845484 46 13.0625 C 46 15.477654 45.725577 16.363703 45.5625 16.78125 C 45.48096 16.990024 45.354096 17.0949 45.28125 17.53125 C 45.24483 17.749425 45.2697 18.01364 45.34375 18.21875 C 45.4178 18.42386 45.526726 18.573434 45.625 18.71875 C 46.453231 19.942069 46.96189 20.69488 47.3125 21.875 C 47.66311 23.05512 47.84375 24.739348 47.84375 27.71875 A 1.0001 1.0001 0 1 0 49.84375 27.71875 C 49.84375 24.656152 49.65864 22.79313 49.21875 21.3125 C 48.789097 19.866326 48.11278 18.869532 47.3125 17.6875 C 47.33783 17.62943 47.33443 17.6839 47.40625 17.5 C 47.665173 16.837047 48 15.631346 48 13.0625 C 48 8.5844516 45.531488 5.7883898 42.8125 4.3125 C 40.256179 2.9249069 37.58898 2.5707736 36.03125 2.53125 C 34.829472 1.5398234 32.992326 1.4802974e-16 30.71875 0 A 1.0001 1.0001 0 0 0 30.625 0 A 1.001098 1.001098 0 0 0 30.53125 0 z M 10.28125 21.03125 A 1.0001 1.0001 0 0 0 10.15625 21.0625 A 1.0001 1.0001 0 0 0 9.40625 21.84375 C 9.39838 21.88376 9.4115 21.90465 9.40625 21.9375 L 9.375 21.9375 C 9.3696 21.99461 9.37991 22.03688 9.375 22.09375 C 9.36668 22.18425 9.354478 22.278116 9.34375 22.40625 C 9.324417 22.637172 9.286577 22.932306 9.25 23.28125 C 9.176845 23.979138 9.0810627 24.896586 8.875 25.84375 C 8.4628746 27.738079 7.6318616 29.74034 6.4375 30.65625 A 1.0031688 1.0031688 0 0 0 7.65625 32.25 C 8.7653511 31.399473 9.4578534 30.201309 9.96875 28.9375 C 10.175706 29.795557 10.366834 30.759879 10.59375 31.375 C 11.309103 33.301029 11.962019 34.680777 11.65625 37.21875 C 11.327099 39.95179 11.125 40.380677 11.125 42.34375 C 11.125 44.436977 12.797981 46.099509 14.28125 47.46875 C 15.764519 48.837991 17.25 49.84375 17.25 49.84375 A 1.0054782 1.0054782 0 1 0 18.34375 48.15625 C 18.34375 48.15625 17.005481 47.245509 15.65625 46 C 14.307019 44.754491 13.125 43.121523 13.125 42.34375 C 13.125 40.504823 13.288151 40.23446 13.625 37.4375 C 13.985231 34.447473 13.151397 32.525471 12.46875 30.6875 C 11.824428 28.940878 11.057092 25.82503 11.375 22.25 C 11.378 22.21599 11.3718 22.19034 11.375 22.15625 A 1.0001 1.0001 0 0 0 10.28125 21.03125 z M 39.59375 21.03125 A 1.0001 1.0001 0 0 0 39.40625 21.0625 A 1.0001 1.0001 0 0 0 38.625 22.15625 C 38.6282 22.19034 38.622 22.21599 38.625 22.25 C 38.942877 25.82486 38.174915 28.940144 37.53125 30.6875 C 36.848603 32.525471 36.015864 34.447584 36.375 37.4375 C 36.712828 40.234191 36.875 40.504472 36.875 42.34375 C 36.875 43.121639 35.692736 44.754498 34.34375 46 C 32.994764 47.245502 31.65625 48.15625 31.65625 48.15625 A 1.0054782 1.0054782 0 1 0 32.75 49.84375 C 32.75 49.84375 34.235736 48.837998 35.71875 47.46875 C 37.201764 46.099502 38.875 44.436861 38.875 42.34375 C 38.875 40.381028 38.673922 39.952059 38.34375 37.21875 C 38.038886 34.680666 38.690897 33.301029 39.40625 31.375 C 39.632755 30.760107 39.824336 29.79547 40.03125 28.9375 C 40.542147 30.201309 41.234649 31.399473 42.34375 32.25 A 1.0031688 1.0031688 0 0 0 43.5625 30.65625 C 42.368138 29.74034 41.537125 27.738079 41.125 25.84375 C 40.918937 24.896586 40.823155 23.979138 40.75 23.28125 C 40.71342 22.932306 40.67558 22.637172 40.65625 22.40625 C 40.64552 22.278116 40.63332 22.184248 40.625 22.09375 C 40.6201 22.03687 40.6304 21.99461 40.625 21.9375 L 40.59375 21.9375 C 40.58845 21.90465 40.60165 21.88376 40.59375 21.84375 A 1.0001 1.0001 0 0 0 39.59375 21.03125 z M 21.28125 25 C 20.80325 25.006 20.25025 25.02725 19.65625 25.03125 C 19.37225 25.03425 19.06525 25.03125 18.65625 25.03125 C 16.40925 25.03125 15 26.34975 15 28.46875 C 15 29.99475 15.78025 30.795 16.53125 31.25 C 16.20125 31.769 16 32.46675 16 33.46875 C 16 34.63175 16.7035 35.59275 17.5625 36.21875 C 17.2285 36.77075 17 37.50175 17 38.46875 C 17 40.46475 20.18075 45 22.46875 45 C 22.85075 45 23.5775 44.55025 23.6875 44.03125 C 23.8695 43.17425 24 38.80225 24 37.90625 C 24 37.68425 24.01825 37 22.65625 37 C 22.10425 37 21.65625 36.553 21.65625 36 C 21.65625 35.447 22.10425 35 22.65625 35 C 23.38425 35 23.67325 34.8245 23.90625 34.5625 C 24.01025 34.3585 24.002 33.44175 24 33.09375 L 24 32.90625 C 24 32.68425 24.01825 32 22.65625 32 C 22.52625 32 21.65625 32.016 21.65625 31 C 21.65625 29.984 22.456 30.006 22.5 30 C 23.092 29.918 23.664 29.72875 23.875 29.59375 C 23.948 29.34475 24.04025 28.695 24.03125 27.125 L 24 26.90625 C 24 26.46825 23.853 25.041 21.75 25 C 21.603 25.002 21.44225 24.998 21.28125 25 z M 28.28125 25 C 26.18225 25.042 26.03125 26.46825 26.03125 26.90625 L 26.03125 27.125 C 26.02125 28.695 26.08125 29.34475 26.15625 29.59375 C 26.36725 29.72875 26.94025 29.918 27.53125 30 C 27.57525 30.006 28.375 30.0985 28.375 31.0625 C 28.375 32.0265 27.504 32 27.375 32 C 26.013 32 26.03125 32.68425 26.03125 32.90625 L 26.03125 33.09375 C 26.02925 33.44175 26.021 34.3585 26.125 34.5625 C 26.359 34.8235 26.647 35 27.375 35 C 27.928 35 28.375 35.447 28.375 36 C 28.375 36.553 27.928 37 27.375 37 C 26.013 37 26.03125 37.68425 26.03125 37.90625 C 26.03125 38.80225 26.16175 43.17325 26.34375 44.03125 C 26.45175 44.54425 27.1775 44.99 27.5625 45 C 29.8495 44.98 33 40.46075 33 38.46875 C 33 37.50175 32.7715 36.77175 32.4375 36.21875 C 33.2965 35.59275 34 34.63075 34 33.46875 C 34 32.46675 33.79675 31.768 33.46875 31.25 C 34.21975 30.794 35 29.99375 35 28.46875 C 35 26.35075 33.59075 25.03125 31.34375 25.03125 L 31.3125 25.03125 C 30.9535 25.03125 30.66525 25.03325 30.40625 25.03125 C 29.78825 25.02725 29.21175 25.006 28.71875 25 C 28.56675 24.998 28.42125 25.002 28.28125 25 z" overflow="visible" enable-background="accumulate" font-family="Bitstream Vera Sans"/>
</svg>
