<?xml version="1.0" encoding="utf-8"?>
<!-- Svg Vector Icons : http://www.onlinewebfonts.com/icon -->
<!DOCTYPE svg PUBLIC "-//W3C//DTD SVG 1.1//EN" "http://www.w3.org/Graphics/SVG/1.1/DTD/svg11.dtd">
<svg version="1.1" xmlns="http://www.w3.org/2000/svg" xmlns:xlink="http://www.w3.org/1999/xlink" x="0px" y="0px" viewBox="0 0 256 256" enable-background="new 0 0 256 256" xml:space="preserve">
<metadata> Svg Vector Icons : http://www.onlinewebfonts.com/icon </metadata>
<g><g><g><path fill="#000000" d="M106.7,10.8c-8.3,0.9-11,2-15.3,6.3c-2.9,3-11.6,15.3-16.3,23c-3.7,6.2-10.9,21.2-17.4,36.2c-3.1,7.2-7.1,16.2-8.9,20.2c-1.8,3.9-3.7,8.4-4.1,10c-4.3,15-3.6,39.2,1.7,64.7c2,9.5,4.3,17.4,5.4,18.6c2.1,2.3,9.8,3.2,15.8,1.8l3-0.7l4.9,3.1c6.3,4,20.5,10.9,28.4,13.8c12,4.5,25.8,7.9,38.5,9.6c6.2,0.8,21.7,0.8,26.1,0c8.5-1.6,8.8-1.3-5.4-4.9c-15.8-4-22.3-6.1-30.3-10c-5.6-2.7-6.8-3.6-10.5-7.3c-5.8-5.7-10.4-12.9-11.7-18.2c-0.4-1.5,0-1.2,2.9,3.3c2.8,4.2,9.5,10.8,14.2,13.9c8.3,5.5,21.2,10.3,37.2,13.8c9.4,2.1,14.3,3.8,18.2,6.3c6.7,4.2,13,10.4,24.9,24.6l6,7v-61.6v-61.7l-2.6,0.4c-7.8,1-13.1,4.1-23,13.4c-8.7,8.1-12.9,11.3-17.8,13.3l-1.8,0.7l1.8-1.4c6.7-5.2,12.8-12.6,12.8-15.5c-0.1-2.3-2-5.7-5.1-8.7c-5.6-5.4-14.4-9.7-23.9-11.5c-15.8-3-32.7,4.2-41.6,17.6c-0.8,1.2-0.8,1.2-2.1,0.4c-2.5-1.6-7.7-1.6-11.9,0c-0.6,0.3-0.4-0.6,0.9-3.4c4.2-9.5,6.1-17.6,6.1-26.8c-0.1-5.5-0.4-8.2-1.9-16.1c-3.1-15.1-2.8-25,1-36.4l1.2-3.7l-0.3,5.4c-0.3,4.7-0.2,5.7,0.8,7.7c0.6,1.3,1.4,2.6,2,2.9c3.9,2.1,17.4,3.6,24.7,2.8c7.2-0.8,10.1-1.8,12.4-4.3c7.5-8.2,8.9-21.1,3.7-33.9c-2.6-6.5-4-8.6-6.8-10.3C134.6,10.3,124.1,9,106.7,10.8z"/></g></g></g>
</svg>