<svg width="24" height="24" viewBox="0 0 24 24" fill="none" xmlns="http://www.w3.org/2000/svg">
<path d="M12 9.30005C12 13.6 14.1 17.8 14.5 17.8C14.8 17.8 15.2 17.4 15.9 16.3C16.5 15.3 17 14.4 17 12.8V9.80005C16.5 9.60005 14.8 8.20005 15.3 5.30005C14 5.70005 12 8.50005 12 9.30005Z" fill="black"/>
<path d="M12 9.30005C12 13.6 9.9 17.8 9.5 17.8C9.2 17.8 8.8 17.4 8.1 16.3C7.5 15.3 7 14.4 7 12.8V9.80005C7.5 9.60005 9.2 8.20005 8.7 5.30005C10 5.70005 12 8.50005 12 9.30005Z" fill="black"/>
<path d="M21.1 9.4C21.1 9.1 21.2 8.7 21.2 7.9C21.2 4.6 18.4 3.2 16.3 3C15.6 2.5 14.9 2.2 14.3 2.1H14H10C9.9 2 9.8 2 9.7 2C9.1 2.1 8.4 2.5 7.7 3C5.6 3.2 2.8 4.6 2.8 7.9C2.8 8.7 2.8 9.1 2.9 9.4C2.5 9.9 2 10.9 2 12.9C2 13.4 2.3 13.9 2.7 14.2L5.1 15.5C5.3 15.6 5.6 15.7 5.9 15.7C6 15.7 6.3 15.2 6.3 15.2V16C6.3 16.3 6.2 16.5 6.2 16.7C6.1 17.1 6.1 17.4 6.1 18C6.1 19.6 7.8 21 8.8 21.6C9.1 21.9 9.4 22 9.7 22H14.3C14.6 22 14.9 21.9 15.2 21.7C16.2 21 17.8 19.6 17.8 18.1C17.8 17.5 17.8 17.2 17.7 16.8C17.7 16.6 17.6 16.4 17.6 16.1V15.3C17.6 15.3 17.9 15.8 18 15.8C18.3 15.8 18.5 15.7 18.8 15.6L21.2 14.3C21.7 14 21.9 13.5 21.9 13C22 10.9 21.5 9.9 21.1 9.4ZM18.6 14C17.5 13.9 17.2 12.4 17 12.1C16.8 14.2 16.2 15.2 16.2 15.2V16.3C16.2 16.6 16.3 16.8 16.3 17C16.3 17.4 16.4 17.6 16.4 18.1C16.4 18.7 15.6 19.7 14.4 20.5H9.8C8.6 19.7 7.8 18.7 7.8 18.1C7.8 17.6 7.8 17.4 7.9 17C7.9 16.8 8 16.6 8 16.3V15.2C8 15.2 7.1 14.1 7.1 12.1C6.5 13.1 5.5 14 5.5 14L3.6 13C3.6 11.3 4.1 10.5 4.2 10.3L4.5 9.9L4.4 9.2C4.4 8.9 4.3 8.4 4.3 7.9C4.3 4.9 7.5 4.5 7.8 4.5H8.2L8.5 4.3C9 3.9 9.5 3.7 9.9 3.6H13.9C14.3 3.7 14.8 3.9 15.3 4.3L15.6 4.5H16C16.4 4.5 19.5 4.9 19.5 7.9C19.5 8.5 19.5 8.9 19.4 9.2L19.3 9.7L19.6 10.1C19.8 10.4 20.2 11.1 20.2 12.9L18.6 14Z" fill="black"/>
</svg>
