<svg xmlns="http://www.w3.org/2000/svg" width="50" height="50" viewBox="0 0 50 50">
  <script xmlns=""/>
  <path
    style="text-indent:0;text-align:start;line-height:normal;text-transform:none;block-progression:tb;-inkscape-font-specification:Bitstream Vera Sans"
    d="M 9.59375 3.875 C 9.302295 3.8641248 9.0046515 3.8633194 8.6875 3.90625 C 6.3261567 4.2257552 4.4254746 6.0063855 3.09375 7.3125 C 0.61306519 9.7468169 -0.15539884 13.031675 0.15625 17.71875 C 0.37303672 20.998142 0.56168634 27.413673 3.71875 35.8125 C 4.8238508 38.751002 6.8682397 41.285933 8.78125 43.125 C 9.7377552 44.044534 10.659396 44.782402 11.4375 45.3125 C 11.826552 45.577549 12.177941 45.80977 12.5 45.96875 C 12.822059 46.12773 13.052709 46.25 13.53125 46.25 C 14.27694 46.25 14.880812 45.996801 15.5625 45.8125 C 16.244188 45.628199 16.953572 45.500229 17.5625 45.53125 C 18.950674 45.60362 21.421111 46.21875 25.65625 46.21875 C 31.944505 46.21875 36.16563 42.568673 38.71875 39.03125 C 40.945864 35.945519 41.831221 33.269097 42.0625 32.53125 C 42.718789 32.392119 44.055567 32.067583 45.6875 31 C 47.796649 29.62023 49.96875 27.025376 49.96875 22.84375 C 49.96875 20.195524 49.402586 17.357044 47.90625 15.09375 C 46.409914 12.830456 43.893873 11.21875 40.40625 11.21875 C 31.829774 11.21875 27.889694 16.830341 28.34375 21.0625 C 23.35285 20.730709 20.132373 22.390857 18.40625 24.65625 C 17.514952 25.826005 17.027842 27.079275 16.6875 28.21875 C 15.792565 26.387662 14.601292 24.396877 12.375 22.3125 C 11.070651 21.09164 10.134065 19.571137 9.46875 18.21875 C 8.8375803 16.93577 8.5097477 15.945861 8.28125 15.34375 C 8.363094 15.31493 8.4538435 15.29597 8.5625 15.25 C 8.6669129 15.32685 8.7858261 15.388053 8.875 15.4375 C 8.944004 15.47576 9.027953 15.50259 9.09375 15.53125 C 9.126648 15.54558 9.139379 15.57735 9.1875 15.59375 C 9.19597 15.59665 9.243557 15.58965 9.25 15.59375 C 9.280163 15.61297 9.271947 15.65625 9.53125 15.65625 L 9.53125 15.625 C 9.9472641 15.71539 10.353639 15.78125 10.65625 15.78125 C 10.983605 15.78125 11.452938 15.75008 12 15.53125 C 12.273531 15.421838 12.585472 15.270202 12.84375 14.9375 C 12.86841 14.90573 12.85285 14.84766 12.875 14.8125 C 13.214883 14.72652 13.530004 14.558016 13.8125 14.34375 C 14.113165 14.115702 14.340658 13.762387 14.5 13.34375 C 14.932648 13.18528 15.332223 12.969918 15.5625 12.65625 C 15.809569 12.319711 15.938796 11.935281 16 11.53125 C 16.05392 11.4877 16.142206 11.48651 16.1875 11.4375 C 16.447504 11.156156 16.566684 10.834752 16.625 10.5625 C 16.741631 10.017996 16.666231 9.6144111 16.5625 9.25 C 16.36752 8.5690259 16.069828 7.972581 15.625 7.46875 C 15.180172 6.964919 14.633172 6.5552861 13.90625 6.03125 C 13.259709 5.5647581 12.661789 4.9702635 11.84375 4.5 C 11.230221 4.1473024 10.468115 3.9076257 9.59375 3.875 z M 9.53125 5.84375 C 10.062022 5.8508158 10.436717 5.9847605 10.84375 6.21875 C 11.386461 6.5307365 11.943291 7.0654919 12.71875 7.625 C 13.417828 8.1289639 13.870578 8.493081 14.125 8.78125 C 14.379422 9.069419 14.48498 9.2922241 14.625 9.78125 C 14.6325 9.807734 14.65292 9.9308846 14.65625 10.03125 A 1.0001 1.0001 0 0 0 14.0625 11.21875 C 14.02705 11.088629 14.02542 11.348995 13.9375 11.46875 C 13.84958 11.588505 13.9072 11.5315 13.90625 11.53125 A 1.0001 1.0001 0 0 0 12.65625 12.6875 C 12.645241 12.690713 12.640912 12.714231 12.59375 12.75 C 12.501784 12.81975 12.328035 12.821119 12.34375 12.84375 A 1.0001 1.0001 0 0 0 11.1875 13.6875 C 11.022465 13.73167 10.746397 13.78125 10.65625 13.78125 C 10.419673 13.78125 10.123234 13.7437 9.90625 13.6875 A 1.0001 1.0001 0 0 0 8.0625 13.1875 C 7.9541039 13.35695 7.7994451 13.380494 7.28125 13.59375 C 7.0221524 13.700378 6.5948377 13.90042 6.34375 14.40625 C 6.0926623 14.91208 6.163777 15.447319 6.34375 15.90625 C 6.4994153 16.304152 6.9225647 17.602387 7.65625 19.09375 C 8.3899353 20.585113 9.4765988 22.32611 11.03125 23.78125 C 14.144673 26.696208 15.207643 29.454101 16.125 31.75 A 1.0001 1.0001 0 0 0 18.03125 31.5 C 18.186095 30.302736 18.511258 27.82885 20 25.875 C 21.488742 23.92115 24.072716 22.348243 29.4375 23.09375 A 1.0001 1.0001 0 0 0 30.5 21.75 C 29.561804 19.285309 31.817494 13.21875 40.40625 13.21875 C 43.306627 13.21875 45.058836 14.385794 46.25 16.1875 C 47.441164 17.989206 47.96875 20.485976 47.96875 22.84375 C 47.96875 26.363124 46.309601 28.19002 44.59375 29.3125 C 42.877899 30.43498 41.15625 30.71875 41.15625 30.71875 A 1.0001 1.0001 0 0 0 40.34375 31.40625 C 40.34375 31.40625 39.42288 34.647923 37.09375 37.875 C 34.76462 41.102077 31.180995 44.21875 25.65625 44.21875 C 21.617389 44.21875 19.452076 43.624877 17.65625 43.53125 C 16.675178 43.48127 15.770812 43.706301 15.03125 43.90625 C 14.320966 44.098283 13.755508 44.239197 13.59375 44.25 C 13.547095 44.237617 13.464611 44.200481 13.375 44.15625 C 13.17372 44.05689 12.895057 43.882811 12.5625 43.65625 C 11.897386 43.203129 11.03662 42.533841 10.15625 41.6875 C 8.3955103 39.994817 6.5416492 37.645498 5.59375 35.125 C 2.5448137 27.013827 2.3794633 20.970358 2.15625 17.59375 C 1.8618988 13.166825 2.4866848 10.725683 4.5 8.75 C 5.7682754 7.5061145 7.5148433 6.0674948 8.9375 5.875 C 9.1540985 5.8456806 9.3543261 5.8413947 9.53125 5.84375 z"
    overflow="visible" enable-background="accumulate" font-family="Bitstream Vera Sans"/>
  <script xmlns=""/>
</svg>
