<svg width="24" height="24" viewBox="0 0 24 24" fill="none" xmlns="http://www.w3.org/2000/svg">
<path d="M14.9091 1.97656L14.6234 2.05448C14.6234 2.05448 13.8745 2.21544 13.1169 2.67786C12.3592 3.14029 11.4805 4.02605 11.4805 5.35319C11.4805 6.68033 12.3592 7.56609 13.1169 8.02851C13.4688 8.24329 13.5456 8.21617 13.8182 8.31422C13.5231 9.12501 13.0001 11.1012 13.4545 13.8727C12.8074 12.7618 11.6068 12.0025 10.2338 12.0025C9.63178 12.0025 9.08542 12.193 8.46753 12.4441C7.84964 12.6952 7.19712 13.033 6.5974 13.3532C5.39798 13.9936 4.38961 14.6259 4.38961 14.6259L4 14.8597V15.3272V19.4831V20.0025L4.46753 20.2363C4.46753 20.2363 7.95701 21.9766 12.3117 21.9766C16.6664 21.9766 20.1558 20.2363 20.1558 20.2363L20.6234 20.0025V19.4831C20.6234 15.3274 20.1585 11.7173 19.6104 9.0415C19.3363 7.70361 19.0591 6.60859 18.7792 5.76877C18.4993 4.92895 18.337 4.43581 17.9221 3.97656C17.4436 3.44693 16.7736 3.0149 16.2078 2.67786C15.642 2.34082 15.1688 2.10643 15.1688 2.10643L14.9091 1.97656ZM14.7273 3.76877C14.8857 3.85089 15.0251 3.89701 15.3766 4.10643C15.8845 4.40898 16.4615 4.83077 16.6753 5.06747C16.6066 4.9914 16.9423 5.53064 17.1948 6.28825C17.4473 7.04586 17.7372 8.09626 18 9.37916C18.4988 11.8143 18.893 15.136 18.9351 18.9116C18.3048 19.1986 15.7642 20.3142 12.3117 20.3142C8.83809 20.3142 6.26851 19.1887 5.66234 18.9116V15.7947C5.9325 15.627 6.45301 15.3009 7.37662 14.8077C7.94449 14.5045 8.55851 14.2189 9.09091 14.0025C9.62331 13.7861 10.1035 13.6649 10.2338 13.6649C11.2876 13.6649 12.1396 14.4468 12.2857 15.4571L12.3896 16.1584H13.0909H14.5714H15.7662L15.3506 15.0415C14.1344 11.6998 15.5584 8.15838 15.5584 8.15838L15.9481 7.24929L14.987 7.0415C14.987 7.0415 14.4891 6.92442 14 6.62591C13.5109 6.3274 13.1429 5.96932 13.1429 5.35319C13.1429 4.73705 13.5109 4.37897 14 4.08046C14.3614 3.85991 14.559 3.81727 14.7273 3.76877Z" fill="black"/>
<path d="M7.68311 17.781C7.68311 17.781 11.2449 17.7723 11.961 17.0466C12.6771 16.3209 13.7166 13.82 12.7775 13.1125C11.609 12.1784 7.50068 12.5291 6.21611 13.7956C4.51066 15.4181 4.90809 17.5748 7.68311 17.781Z" fill="black"/>
</svg>
