<svg width="24" height="24" viewBox="0 0 24 24" fill="none" xmlns="http://www.w3.org/2000/svg">
<path d="M21.1 9.4C21.1 9.1 21.2 8.7 21.2 7.9C21.2 4.6 18.4 3.2 16.3 3C15.6 2.5 14.9 2.2 14.3 2.1H14H10C9.9 2 9.8 2 9.7 2C9.1 2.1 8.4 2.5 7.7 3C5.6 3.2 2.8 4.6 2.8 7.9C2.8 8.7 2.8 9.1 2.9 9.4C2.5 9.9 2 10.9 2 12.9C2 13.4 2.3 13.9 2.7 14.2L5.1 15.5C5.3 15.6 5.6 15.7 5.9 15.7C6 15.7 6.3 15.2 6.3 15.2V16C6.3 16.3 6.2 16.5 6.2 16.7C6.1 17.1 6.1 17.4 6.1 18C6.1 19.6 7.8 21 8.8 21.6C9.1 21.9 9.4 22 9.7 22H14.3C14.6 22 14.9 21.9 15.2 21.7C16.2 21 17.8 19.6 17.8 18.1C17.8 17.5 17.8 17.2 17.7 16.8C17.7 16.6 17.6 16.4 17.6 16.1V15.3C17.6 15.3 17.9 15.8 18 15.8C18.3 15.8 18.5 15.7 18.8 15.6L21.2 14.3C21.7 14 21.9 13.5 21.9 13C22 10.9 21.5 9.9 21.1 9.4ZM18.6 14C17.5 13.9 17.2 12.4 17 12.1C16.8 14.2 16.2 15.2 16.2 15.2V16.3C16.2 16.6 16.3 16.8 16.3 17C16.3 17.4 16.4 17.6 16.4 18.1C16.4 18.7 15.6 19.7 14.4 20.5H9.8C8.6 19.7 7.8 18.7 7.8 18.1C7.8 17.6 7.8 17.4 7.9 17C7.9 16.8 8 16.6 8 16.3V15.2C8 15.2 7.1 14.1 7.1 12.1C6.5 13.1 5.5 14 5.5 14L3.6 13C3.6 11.3 4.1 10.5 4.2 10.3L4.5 9.9L4.4 9.2C4.4 8.9 4.3 8.4 4.3 7.9C4.3 4.9 7.5 4.5 7.8 4.5H8.2L8.5 4.3C9 3.9 9.5 3.7 9.9 3.6H13.9C14.3 3.7 14.8 3.9 15.3 4.3L15.6 4.5H16C16.4 4.5 19.5 4.9 19.5 7.9C19.5 8.5 19.5 8.9 19.4 9.2L19.3 9.7L19.6 10.1C19.8 10.4 20.2 11.1 20.2 12.9L18.6 14Z" fill="black"/>
<path d="M9.09896 5.61994C8.60335 5.72703 8.34375 7.10431 7.25 7.83348C6.75 8.25015 6 8.82306 6 8.82306C6 8.82306 6.32292 10.0939 6.57292 10.5939C7.23958 11.9272 7.83333 12.0001 9.33333 12.0001C10.5833 12.0001 11.8333 11.5106 11.8333 10.5939C11.8333 11.5106 13.0833 12.0001 14.3333 12.0001C15.8333 12.0001 16.4271 11.9272 17.0938 10.5939C17.3438 10.0939 17.6667 8.82306 17.6667 8.82306C17.6667 8.82306 16.9167 8.25015 16.4167 7.83348C15.1667 7.00015 15 5.33869 14.3333 5.67202C12.25 6.50535 12.3333 7.26056 11.8333 7.26056C11.3333 7.26056 11.4167 6.58869 9.33333 5.67202C9.25 5.63035 9.16976 5.60464 9.09896 5.61994Z" fill="black"/>
</svg>
