<svg width="80" height="80" viewBox="0 0 80 80" fill="none" xmlns="http://www.w3.org/2000/svg">
<mask id="mask0_2_1521" style="mask-type:alpha" maskUnits="userSpaceOnUse" x="0" y="0" width="80" height="80">
<circle cx="40" cy="40" r="40" fill="#263238"/>
</mask>
<g mask="url(#mask0_2_1521)">
<path d="M24.3944 -28.4416C24.3944 -28.4416 25.0144 -37.1216 20.9844 -42.3816C16.9544 -47.6516 7.6644 -47.6516 3.6344 -46.1016C-0.395605 -44.5516 -4.42559 -41.7616 -5.35559 -37.1116C-6.28559 -32.4616 -5.97561 -26.8816 -5.97561 -26.8816C-5.97561 -26.8816 -9.0756 -26.2616 -8.1456 -22.8516C-7.2156 -19.4416 -5.35559 -17.5816 -5.35559 -17.5816C-5.35559 -17.5816 -4.42559 -13.2416 -3.80559 -11.3816C-3.18559 -9.52159 0.224407 -5.49159 0.224407 -5.49159C0.224407 -5.49159 0.844404 -0.841592 -1.3256 0.708408C-3.4956 2.25841 -8.76561 3.4984 -16.1956 5.9784C-23.6256 8.4584 -30.4456 14.9684 -31.9956 23.3284C-33.5456 31.6984 -32.6156 38.5084 -32.6156 38.5084L-35.4056 56.1684C-35.4056 56.1684 -38.1956 62.6784 -38.5056 71.3484C-38.8156 80.0284 -39.0056 87.4684 -39.0056 87.4684C-39.0056 87.4684 -38.5056 98.6084 -42.8456 100.778C-47.1856 102.948 -47.4956 104.498 -48.1156 106.048C-48.7356 107.598 -49.0456 110.698 -50.2856 111.628C-51.5256 112.558 -55.5556 111.628 -54.9356 114.728C-54.3156 117.828 -49.9756 115.968 -49.9756 115.968L-47.1856 115.348C-47.1856 115.348 -47.1856 129.598 -47.1856 131.148C-47.1856 132.698 -46.2556 134.868 -44.7056 133.008C-44.7056 133.008 -43.1556 135.178 -42.2256 134.248L-40.7156 133.378C-40.7156 133.378 -38.8856 134.128 -38.0256 133.808C-37.1656 133.488 -35.4456 131.118 -35.4456 131.118C-35.4456 131.118 -35.0156 132.408 -33.3956 130.468C-31.7756 128.528 -31.5656 126.158 -31.1356 124.548C-30.7056 122.928 -29.3056 114.098 -28.8756 112.588C-28.4456 111.078 -28.8756 103.108 -28.8756 103.108L-29.1956 99.6584C-29.1956 99.6584 -22.1956 80.5984 -21.0056 76.0684C-19.8256 71.5484 -18.5256 66.8084 -18.0956 62.9284C-17.6656 59.0484 -15.8356 51.4084 -15.8356 51.4084L-15.0856 51.0884C-15.0856 51.0884 -14.9756 69.2884 -15.4056 71.6584C-15.8356 74.0284 -19.0656 78.4484 -18.7456 84.0484C-18.4256 89.6484 -20.3656 99.1284 -20.8956 102.358C-21.4356 105.588 -25.5256 116.578 -23.8056 134.558C-22.0856 152.548 -18.4756 162.628 -16.3856 170.628C-14.2956 178.628 -14.8656 183.768 -15.8156 191.378C-16.7656 198.998 -15.2456 202.418 -12.5756 212.128C-9.9056 221.838 -5.1456 232.118 -4.5756 235.928C-4.0056 239.738 -5.71559 240.118 -6.66559 242.398C-7.61559 244.678 -12.7556 250.588 -12.9456 253.058C-13.1356 255.538 -11.4256 257.438 -6.66559 258.768C-1.90559 260.098 1.52439 260.098 3.80439 257.058C6.08439 254.008 6.28441 252.108 6.08441 249.828C5.89441 247.548 5.32441 247.158 6.08441 245.068C6.84441 242.978 7.79441 241.828 7.22441 238.218C6.65441 234.598 7.0344 237.838 5.5144 230.408C3.9944 222.978 5.7044 213.268 5.7044 209.088C5.7044 204.898 5.70441 194.998 4.75441 190.048C3.80441 185.098 3.6144 187.378 3.0444 180.528C2.4744 173.678 3.4244 172.908 3.4244 167.958C3.4244 163.008 2.47441 159.198 2.47441 159.198C2.47441 159.198 6.28441 139.398 6.47441 138.638C6.66441 137.878 9.52439 124.738 9.52439 124.738C9.52439 124.738 10.6644 124.928 11.0444 125.878C11.4244 126.828 16.3744 159.008 16.3744 159.008C16.3744 159.008 14.4744 164.148 14.6644 167.578C14.8544 171.008 16.9444 180.718 16.9444 180.718C16.9444 180.718 15.4244 186.808 14.0844 196.328C12.7544 205.848 14.8444 215.748 14.6544 221.648C14.4644 227.548 13.8944 230.408 13.3244 233.068C12.7544 235.738 11.8044 239.538 12.7544 242.398C13.7044 245.258 13.7044 245.258 13.7044 245.258C13.7044 245.258 12.9444 249.638 13.1344 253.068C13.3244 256.498 14.8444 258.778 17.1344 259.158C19.4144 259.538 20.9444 257.448 20.9444 257.448C20.9444 257.448 23.6144 259.158 26.8444 258.208C30.0844 257.258 32.3644 255.928 31.6044 253.258C30.8444 250.588 30.2744 248.688 28.1744 245.828C26.0844 242.968 24.7444 242.588 24.1744 239.168C23.6044 235.738 23.7944 231.738 24.9344 228.698C26.0744 225.658 31.0244 216.318 33.3144 203.948C35.5944 191.568 35.2144 190.808 34.6444 186.428C34.0744 182.048 34.4544 172.718 35.4044 167.958C36.3544 163.198 43.0244 146.068 43.0244 132.168C43.0244 118.268 40.1644 101.138 39.4044 98.0884C38.6444 95.0384 38.0744 89.1384 38.0744 89.1384C38.0744 89.1384 39.2144 84.5684 38.0744 80.5684C36.9344 76.5684 36.1744 75.0484 35.2144 70.6684C34.2644 66.2884 33.5044 59.6284 33.5044 59.0584C33.5044 58.4884 33.5044 51.6284 33.5044 51.6284C33.5044 51.6284 37.1244 60.3884 38.8344 66.4784C40.5444 72.5684 40.5444 76.1884 42.4544 81.8984C44.3544 87.6084 48.3544 98.2684 49.1144 100.558C49.8744 102.838 48.1644 106.838 48.9244 112.938C49.6844 119.028 50.4444 129.498 51.7844 131.028C53.1244 132.558 54.6444 130.838 54.6444 130.838C54.6444 130.838 55.2144 133.888 56.3544 134.268C57.4944 134.648 59.0244 133.508 59.0244 133.508C59.0244 133.508 59.4044 135.408 61.3044 134.648C63.2044 133.888 63.5844 132.558 63.5844 132.558C63.5844 132.558 66.4444 133.698 66.0644 129.888C65.6844 126.078 64.7344 120.938 64.7344 119.798C64.7344 118.658 64.9244 115.038 64.9244 115.038C64.9244 115.038 66.8244 116.558 68.3544 116.748C69.8844 116.938 71.4044 118.458 72.5444 116.748C73.6844 115.038 72.7344 114.468 70.6444 113.128C68.5544 111.798 68.3644 111.418 66.8344 109.128C65.3144 106.848 66.6444 106.268 63.4044 103.418C60.1644 100.558 58.0744 99.2284 58.0744 96.7584C58.0744 94.2784 60.5544 78.8584 58.2644 67.8184C55.9844 56.7784 54.7344 56.4784 54.3544 54.7584C53.9744 53.0384 50.6444 37.5484 50.6444 37.5484C50.6444 37.5484 53.6944 25.5584 48.3644 15.4584C43.0344 5.36841 35.7944 6.12841 30.2744 3.65841C24.7544 1.17841 20.3744 0.608398 19.6144 -0.911602C18.8544 -2.4316 18.4744 -5.10159 18.4744 -5.10159C18.4744 -5.10159 23.4244 -11.9516 23.6144 -14.2416C23.8044 -16.5216 23.8044 -16.5216 23.8044 -16.5216C23.8044 -16.5216 26.8544 -17.6616 27.6144 -23.5616C28.3544 -29.4816 24.3944 -28.4416 24.3944 -28.4416Z" stroke="#BAB9B9" stroke-width="1.5" stroke-miterlimit="10" stroke-linecap="round" stroke-linejoin="round"/>
<path d="M45.4944 62.1884C45.4944 62.1884 41.8244 65.6684 37.6644 58.6484" stroke="#BAB9B9" stroke-width="1.5" stroke-miterlimit="10" stroke-linecap="round" stroke-linejoin="round"/>
<path d="M31.2044 62.8484C31.2044 62.8484 32.2044 68.7484 28.4044 72.6784" stroke="#BAB9B9" stroke-width="1.5" stroke-miterlimit="10" stroke-linecap="round" stroke-linejoin="round"/>
<path d="M6.6044 -1.3916L9.8844 9.61841L13.1344 -1.3916" stroke="#BAB9B9" stroke-width="1.5" stroke-miterlimit="10" stroke-linecap="round" stroke-linejoin="round"/>
<path d="M23.5944 -14.2516C23.7844 -16.5316 23.7844 -16.5316 23.7844 -16.5316C23.7844 -16.5316 26.8344 -17.6716 27.5944 -23.5716C28.3544 -29.4716 24.3944 -28.4316 24.3944 -28.4316C24.3944 -28.4316 25.0144 -37.1116 20.9844 -42.3716C16.9544 -47.6416 7.6644 -47.6416 3.6344 -46.0916C-0.395597 -44.5416 -4.42559 -41.7516 -5.35559 -37.1016C-6.28559 -32.4516 -5.9756 -26.8716 -5.9756 -26.8716C-5.9756 -26.8716 -9.0756 -26.2516 -8.1456 -22.8416C-7.2156 -19.4316 -5.35559 -17.5716 -5.35559 -17.5716C-5.35559 -17.5716 -4.42558 -13.2316 -3.80558 -11.3716C-3.18558 -9.51159 0.224415 -5.48159 0.224415 -5.48159C0.224415 -5.48159 4.4244 -1.75159 6.6044 -1.36159C8.7844 -0.961591 11.1644 -0.571591 13.1444 -1.36159C15.1244 -2.15159 18.4644 -5.08159 18.4644 -5.08159C18.4644 -5.08159 23.4044 -11.9616 23.5944 -14.2516Z" fill="#92E3A9" stroke="#BAB9B9" stroke-width="1.5" stroke-miterlimit="10" stroke-linecap="round" stroke-linejoin="round"/>
<path d="M21.6144 45.9584C21.6144 45.9584 23.8644 47.1684 29.7544 41.8484C36.6944 35.5884 39.1044 31.3284 39.1044 31.3284" stroke="#BAB9B9" stroke-width="1.5" stroke-miterlimit="10" stroke-linecap="round" stroke-linejoin="round"/>
<path d="M33.4944 51.6284C33.4944 51.6284 31.5944 42.8584 32.4244 39.8484" stroke="#BAB9B9" stroke-width="1.5" stroke-miterlimit="10" stroke-linecap="round" stroke-linejoin="round"/>
<path d="M7.70441 60.3984C7.70441 60.3984 8.87441 52.0484 7.53441 50.0384C6.19441 48.0384 0.854407 48.1984 -1.31559 52.0384C-3.48559 55.8784 -5.15559 58.8884 -3.48559 59.0584C-1.81559 59.2284 -0.815597 57.0584 -0.475597 57.7184C-0.145597 58.3884 0.694417 59.7184 1.69442 58.7184C2.69442 57.7184 3.19442 57.2184 3.69442 57.3784C4.19442 57.5484 4.36441 58.3784 4.86441 58.5484C5.37441 58.7284 7.70441 60.3984 7.70441 60.3984Z" stroke="#BAB9B9" stroke-width="1.5" stroke-miterlimit="10" stroke-linecap="round" stroke-linejoin="round"/>
<path d="M11.0444 51.2084C11.0444 51.2084 10.8744 60.2284 11.8844 60.3984C12.8844 60.5684 14.5544 58.8984 14.5544 58.8984C16.0544 58.5684 16.7244 57.3984 17.7244 57.7284C18.7244 58.0584 20.3944 59.0684 20.3944 59.0684H21.5644L23.2344 58.7384C23.2344 58.7384 23.0644 56.8984 21.5644 53.2284C20.0644 49.5584 17.2244 48.7184 14.3844 48.8884C11.5544 49.0384 11.0444 51.2084 11.0444 51.2084Z" stroke="#BAB9B9" stroke-width="1.5" stroke-miterlimit="10" stroke-linecap="round" stroke-linejoin="round"/>
<path d="M7.8744 62.2284C7.8744 62.2284 8.8744 70.0784 8.5444 70.7484C8.2144 71.4184 7.20441 71.4184 6.20441 70.4184C5.20441 69.4184 3.86441 69.4184 3.86441 69.4184L0.854401 71.2584C-0.985599 71.2584 -2.15559 71.2584 -2.15559 71.2584L-3.99559 71.7584C-3.99559 71.7584 -4.16559 64.7384 -4.16559 64.2384C-4.16559 63.7384 -3.99559 62.2384 -3.99559 62.2384C-3.99559 62.2384 -2.82559 62.9084 -2.15559 62.0684C-1.48559 61.2284 0.0144043 60.7284 0.0144043 60.7284C0.0144043 60.7284 1.8544 60.7284 2.3544 60.7284C2.8544 60.7284 3.69441 61.2284 3.69441 61.2284C5.69441 61.5584 6.53441 61.8984 6.53441 61.8984L7.8744 62.2284Z" stroke="#BAB9B9" stroke-width="1.5" stroke-miterlimit="10" stroke-linecap="round" stroke-linejoin="round"/>
<path d="M11.3844 62.8984C11.3844 62.8984 11.0544 70.4184 11.5544 71.2484C12.0544 72.0884 12.3944 71.7484 13.5544 70.7484C14.7244 69.7484 13.5544 69.4084 14.7244 69.7484C15.8944 70.0784 13.8844 70.7484 15.8944 70.0784C17.8944 69.4084 16.8944 68.7384 17.8944 69.4084C18.8944 70.0784 17.8944 69.7384 18.8944 70.0784C19.8944 70.4084 20.8944 69.2384 21.4044 70.0784C21.9144 70.9184 23.0744 71.5784 23.0744 71.5784L24.4144 71.7484C24.4144 71.7484 24.2444 63.7284 23.9144 62.8984C23.5844 62.0584 23.4144 61.2284 22.5744 61.2284C21.7344 61.2284 21.5744 61.3984 20.9044 61.2284C20.2344 61.0584 19.2344 60.0584 18.7344 60.3884C18.2344 60.7184 17.3944 61.3884 17.3944 61.3884L14.3844 61.8884L11.3844 62.8984Z" stroke="#BAB9B9" stroke-width="1.5" stroke-miterlimit="10" stroke-linecap="round" stroke-linejoin="round"/>
<path d="M8.71442 75.0984C8.71442 75.0984 8.38442 85.2884 7.87442 85.1184C7.37442 84.9484 7.20442 83.6184 6.20442 83.9484C5.20442 84.2784 5.20442 84.2784 5.20442 84.2784C5.20442 84.2784 3.53443 83.7784 2.86443 83.9484C2.86443 83.9484 0.694429 83.4484 0.194429 83.7784C-0.305571 84.1084 -0.975585 84.9484 -0.975585 84.9484L-2.47558 84.4484L-3.64558 84.7784C-3.64558 84.7784 -4.31558 85.2784 -4.81558 85.4484C-4.81558 85.4484 -5.65558 77.4284 -5.31558 76.4284C-4.98558 75.4284 -4.14557 74.0884 -2.80557 73.7584C-1.46557 73.4284 -0.635573 73.7584 -0.135573 73.4284C0.364427 73.0984 0.704427 72.9284 1.36443 72.9284C2.03443 72.9284 0.364425 72.2584 2.03443 72.9284C3.70443 73.5984 7.38442 74.7684 7.38442 74.7684L8.71442 75.0984Z" fill="#92E3A9" stroke="#BAB9B9" stroke-width="1.5" stroke-miterlimit="10" stroke-linecap="round" stroke-linejoin="round"/>
<path d="M11.5544 75.4284C11.5544 75.4284 11.2244 83.6084 11.5544 84.2784C11.8844 84.9484 12.7244 84.6084 12.7244 84.6084L14.7244 82.9384L15.8944 83.2684C17.0644 83.0984 17.8944 82.7684 18.4044 83.4384C18.9044 84.1084 19.4044 84.4384 19.9044 84.4384C21.2444 84.4384 20.5744 83.9384 21.2444 84.4384C21.9144 84.9384 21.9144 84.9384 21.9144 84.9384L24.0844 84.7684C24.0844 84.7684 24.2544 78.0884 24.2544 76.7484C24.2544 75.4084 24.2544 75.4084 24.2544 75.4084C24.2544 75.4084 23.9244 74.2384 23.2544 74.2384C22.5844 74.2384 20.9144 73.0684 20.9144 73.0684C20.9144 73.0684 20.5844 72.3984 19.4144 72.7384C18.2444 73.0684 18.2444 73.0684 18.2444 73.0684L16.2444 73.3984L14.9044 73.7284C13.8844 73.9284 11.5544 75.4284 11.5544 75.4284Z" stroke="#BAB9B9" stroke-width="1.5" stroke-miterlimit="10" stroke-linecap="round" stroke-linejoin="round"/>
</g>
<path d="M53.2396 17.3097C57.0472 25.8319 54.0074 35.6228 48.8095 37.9452C43.6116 40.2675 41.3287 32.3763 37.5211 23.8542C33.7135 15.332 29.8231 9.4061 35.021 7.08374C40.2189 4.76139 49.432 8.78756 53.2396 17.3097Z" fill="#263238"/>
<circle cx="40" cy="40" r="39" stroke="#E2E2E2" stroke-width="2"/>
</svg>
