<svg width="24" height="24" viewBox="0 0 24 24" fill="none" xmlns="http://www.w3.org/2000/svg">
<path d="M7.56675 2.26203C6.7815 2.30703 6.045 2.65203 5.61075 3.48753C5.13225 4.40478 5.18475 5.16978 5.412 5.75403C5.652 6.37053 6.0975 6.81003 6.4095 6.99753C7.572 7.69503 9.405 8.65953 11.019 9.49878L11.7225 9.86478C12.2527 10.14 12.7387 10.392 13.1377 10.6028C13.4227 10.7528 13.6687 10.884 13.8577 10.989C14.0242 11.0813 14.2042 11.184 14.31 11.2665C14.4615 11.3828 14.625 11.5523 14.715 11.7945C14.808 12.0495 14.7855 12.2895 14.73 12.4778C14.6775 12.6503 14.5927 12.7988 14.526 12.9053C14.469 12.9968 14.4 13.095 14.3385 13.1843L14.304 13.233C14.0212 13.6425 13.6785 14.1668 13.5705 15.0503C13.458 15.9728 13.5525 16.6583 13.6852 17.364L13.7475 17.6835C13.8712 18.3075 14.01 19.011 14.01 19.8578C14.01 20.2283 13.8877 20.6408 13.8097 20.9055V20.9078L13.7842 20.9925C13.7497 21.1073 13.722 21.2025 13.6995 21.2888C13.674 21.3878 13.6695 21.426 13.6695 21.426V21.4223C13.6664 21.4822 13.6753 21.5421 13.6957 21.5985C13.7012 21.6136 13.7108 21.6269 13.7235 21.6368C13.7557 21.663 13.887 21.738 14.238 21.738H18.408C18.1644 21.6988 17.9248 21.6384 17.6917 21.5573C17.3191 21.4282 16.9579 21.2684 16.6117 21.0795C16.2337 20.8748 15.8092 20.5995 15.5055 20.2313C15.1792 19.8353 14.9677 19.2938 15.1455 18.6638C15.5955 17.0633 16.6537 13.4258 17.2477 11.8155C17.526 11.0295 17.5282 10.4865 17.451 10.128C17.3989 9.85716 17.2667 9.60817 17.0715 9.41328L16.053 8.52603L13.7017 6.47778C12.305 5.26303 10.9115 4.04452 9.52125 2.82228C9.1665 2.50728 8.394 2.21328 7.56675 2.26203ZM18.0705 8.29353L18.0832 8.30478L18.0952 8.31603C18.4327 8.63703 18.7702 9.12453 18.918 9.81228C19.065 10.4978 19.0125 11.328 18.66 12.3218L18.657 12.33C18.0877 13.872 17.0445 17.454 16.5892 19.0703C16.5765 19.1138 16.566 19.1595 16.6627 19.2765C16.782 19.4213 17.0032 19.5855 17.3265 19.7603C17.6092 19.914 17.9047 20.0453 18.174 20.1368C18.4537 20.232 18.6585 20.2673 18.774 20.2673H18.7965L18.8205 20.2688C19.1152 20.2875 19.44 20.4165 19.698 20.6408C19.9777 20.883 20.2035 21.2603 20.2035 21.75C20.2035 22.1625 20.064 22.5578 19.758 22.8465C19.4587 23.1293 19.077 23.238 18.7207 23.238H14.238C13.7182 23.238 13.1902 23.1345 12.7807 22.8045C12.3427 22.4505 12.1702 21.9435 12.1702 21.4223C12.1702 21.2363 12.213 21.0488 12.2467 20.9168C12.2848 20.7714 12.326 20.6268 12.3705 20.4833C12.462 20.172 12.51 19.9733 12.51 19.8578C12.51 19.1678 12.402 18.618 12.2797 17.9963L12.2115 17.6423C12.0652 16.8668 11.9422 16.0088 12.0817 14.868C12.2332 13.6253 12.7387 12.8595 13.0717 12.3795L13.113 12.3195L13.1265 12.2993C12.8985 12.1737 12.6692 12.0505 12.4387 11.9295C12.0435 11.7218 11.5642 11.472 11.0362 11.1983L10.3267 10.83C8.7225 9.99528 6.84675 9.00978 5.63775 8.28378C5.055 7.93428 4.38075 7.23978 4.014 6.29778C3.63525 5.32428 3.5955 4.10778 4.28025 2.79378C5.00775 1.39728 6.282 0.834027 7.479 0.764277C8.634 0.696777 9.8175 1.07928 10.518 1.70178C11.0415 2.16678 12.9277 3.81303 14.6872 5.34678C15.8146 6.32969 16.9424 7.31219 18.0705 8.29428C17.9107 8.15478 18.072 8.29503 18.0705 8.29428" fill="#0D0E0F"/>
<path d="M9 6.5C9 6.5 13.2593 10.215 14.5 10.4999C15.7407 10.7848 17.7145 10.88 17.1307 9.26419C16.4383 7.21364 11.7179 2.72497 9.51449 2.1875C6.62628 1.42974 6.0902 3.13639 9 6.5Z" fill="black"/>
</svg>
