<svg fill="none" height="24" viewBox="0 0 24 24" width="24" xmlns="http://www.w3.org/2000/svg">
  <g clip-rule="evenodd" fill="#9da4b0" fill-rule="evenodd">
    <path
      d="m13.7929 13.7929c.3905-.3905 1.0237-.3905 1.4142 0l5.5 5.5c.3905.3905.3905 1.0237 0 1.4142s-1.0237.3905-1.4142 0l-5.5-5.5c-.3905-.3905-.3905-1.0237 0-1.4142z"/>
    <path
      d="m10 5c-2.76142 0-5 2.23858-5 5 0 2.7614 2.23858 5 5 5 2.7614 0 5-2.2386 5-5 0-2.76142-2.2386-5-5-5zm-7 5c0-3.86599 3.13401-7 7-7 3.866 0 7 3.13401 7 7 0 3.866-3.134 7-7 7-3.86599 0-7-3.134-7-7z"/>
  </g>
</svg>
